<svg xmlns="http://www.w3.org/2000/svg" width="14.511" height="14.511" viewBox="0 0 3.839 3.839"><g transform="translate(-69.037 -122.492)" fill="#c7c7c7"><path style="line-height:normal;font-variant-ligatures:normal;font-variant-position:normal;font-variant-caps:normal;font-variant-numeric:normal;font-variant-alternates:normal;font-variant-east-asian:normal;font-feature-settings:normal;font-variation-settings:normal;text-indent:0;text-align:start;text-decoration-line:none;text-decoration-style:solid;text-decoration-color:#000;text-transform:none;text-orientation:mixed;white-space:normal;shape-padding:0;shape-margin:0;inline-size:0;isolation:auto;mix-blend-mode:normal;solid-color:#000;solid-opacity:1" d="M71.356 122.492a.674.674 0 00-.477.198l-1.73 1.732a.38.38 0 000 .533l1.267 1.268a.38.38 0 00.533 0l.143-.144c0-.002.25-.247.25-.249h-.473l-.156.157a.042.042 0 01-.062 0l-1.266-1.268a.04.04 0 010-.061l1.73-1.732a.34.34 0 01.24-.1H72.5c.026 0 .043.017.043.043v1.145a.34.34 0 01-.1.24l-.619.62-.224.224h.472l.607-.608a.674.674 0 00.198-.476v-1.145a.38.38 0 00-.377-.377z" color="#000" font-weight="400" font-family="sans-serif" overflow="visible"/><path style="line-height:normal;font-variant-ligatures:normal;font-variant-position:normal;font-variant-caps:normal;font-variant-numeric:normal;font-variant-alternates:normal;font-variant-east-asian:normal;font-feature-settings:normal;font-variation-settings:normal;text-indent:0;text-align:start;text-decoration-line:none;text-decoration-style:solid;text-decoration-color:#000;text-transform:none;text-orientation:mixed;white-space:normal;shape-padding:0;shape-margin:0;inline-size:0;isolation:auto;mix-blend-mode:normal;solid-color:#000;solid-opacity:1" d="M70.85 125.297a.167.167 0 100 .334h1.216a.167.167 0 100-.334z" color="#000" font-weight="400" font-family="sans-serif" overflow="visible" paint-order="stroke markers fill"/><circle cx="72.03" cy="123.339" r=".265" paint-order="stroke markers fill"/></g></svg>